<svg width="657" height="490" viewBox="0 0 657 490" fill="none" xmlns="http://www.w3.org/2000/svg">
<path d="M657 430.356H0.370605V430.685H657V430.356Z" fill="#EBEBEB"/>
<path d="M591.206 451.487H547.71V451.815H591.206V451.487Z" fill="#EBEBEB"/>
<path d="M435.348 455.059H423.936V455.387H435.348V455.059Z" fill="#EBEBEB"/>
<path d="M546.397 439.3H521.196V439.628H546.397V439.3Z" fill="#EBEBEB"/>
<path d="M125.984 441.506H69.2642V441.834H125.984V441.506Z" fill="#EBEBEB"/>
<path d="M145.998 441.506H137.685V441.834H145.998V441.506Z" fill="#EBEBEB"/>
<path d="M296.051 447.048H173.025V447.376H296.051V447.048Z" fill="#EBEBEB"/>
<path d="M311.613 371.785H58.0359C56.0494 371.782 54.1454 370.99 52.742 369.584C51.3385 368.178 50.5503 366.273 50.5503 364.286V7.82855C50.5676 5.85344 51.3635 3.96492 52.765 2.57318C54.1666 1.18144 56.0607 0.398891 58.0359 0.395508H311.613C313.602 0.395508 315.509 1.18555 316.915 2.59183C318.322 3.99811 319.112 5.90543 319.112 7.89421V364.286C319.112 366.275 318.322 368.182 316.915 369.589C315.509 370.995 313.602 371.785 311.613 371.785ZM58.0359 0.658161C56.1364 0.661639 54.316 1.41862 52.9741 2.76295C51.6323 4.10729 50.8786 5.92912 50.8786 7.82855V364.286C50.8786 366.186 51.6323 368.008 52.9741 369.352C54.316 370.696 56.1364 371.453 58.0359 371.457H311.613C313.514 371.453 315.335 370.697 316.679 369.353C318.023 368.009 318.78 366.187 318.783 364.286V7.82855C318.78 5.92791 318.023 4.10611 316.679 2.76215C315.335 1.4182 313.514 0.661632 311.613 0.658161H58.0359Z" fill="#EBEBEB"/>
<path d="M595.684 371.785H342.094C340.106 371.782 338.201 370.99 336.795 369.585C335.39 368.179 334.598 366.274 334.595 364.286V7.82855C334.616 5.85225 335.414 3.96373 336.818 2.57236C338.222 1.18098 340.117 0.398854 342.094 0.395508H595.684C597.657 0.402343 599.548 1.18642 600.946 2.57779C602.345 3.96916 603.139 5.85571 603.156 7.82855V364.286C603.156 366.271 602.37 368.174 600.969 369.579C599.569 370.985 597.668 371.778 595.684 371.785ZM342.094 0.658161C340.193 0.661632 338.371 1.4182 337.027 2.76215C335.683 4.10611 334.927 5.92791 334.923 7.82855V364.286C334.927 366.187 335.683 368.009 337.027 369.353C338.371 370.697 340.193 371.453 342.094 371.457H595.684C597.585 371.453 599.406 370.697 600.75 369.353C602.094 368.009 602.851 366.187 602.854 364.286V7.82855C602.851 5.92791 602.094 4.10611 600.75 2.76215C599.406 1.4182 597.585 0.661632 595.684 0.658161H342.094Z" fill="#EBEBEB"/>
<path d="M322.933 139.601C320.889 129.791 317.008 120.456 311.495 112.088L321.344 100.19L300.332 79.1779L288.434 89.0142C280.063 83.5099 270.729 79.6337 260.921 77.5889L259.476 62.25H229.652L228.208 77.5889C218.403 79.6313 209.073 83.5078 200.708 89.0142L188.81 79.191L167.798 100.203L177.647 112.101C172.122 120.464 168.223 129.793 166.156 139.601L150.831 141.046V170.83L166.156 172.275C168.221 182.097 172.124 191.441 177.66 199.814L167.811 211.712L188.823 232.724L200.721 222.875C209.086 228.385 218.416 232.266 228.221 234.313L229.665 249.639H259.45L260.895 234.313C270.703 232.264 280.037 228.383 288.408 222.875L300.306 232.724L321.318 211.712L311.468 199.814C316.982 191.451 320.863 182.12 322.907 172.314L338.246 170.87V141.085L322.933 139.601ZM284.849 155.938C284.849 163.912 282.484 171.707 278.054 178.337C273.624 184.967 267.327 190.134 259.96 193.186C252.593 196.237 244.487 197.036 236.666 195.48C228.845 193.925 221.662 190.085 216.023 184.446C210.385 178.808 206.545 171.624 204.989 163.803C203.434 155.983 204.232 147.876 207.283 140.509C210.335 133.142 215.503 126.846 222.133 122.415C228.763 117.985 236.558 115.621 244.532 115.621C249.831 115.619 255.078 116.662 259.973 118.69C264.869 120.718 269.317 123.691 273.062 127.439C276.808 131.187 279.778 135.637 281.803 140.533C283.827 145.43 284.867 150.678 284.862 155.977L284.849 155.938Z" fill="#F0F0F0"/>
<path d="M408.348 282.562L409.385 293.581H430.791L431.829 282.575C438.852 281.092 445.534 278.303 451.528 274.354L460.143 281.433L475.271 266.304L468.193 257.794C472.149 251.78 474.938 245.075 476.414 238.03L487.419 236.992V215.586L476.414 214.549C474.93 207.526 472.142 200.844 468.193 194.85L475.271 186.3L460.143 171.119L451.593 178.198C445.599 174.249 438.917 171.46 431.894 169.977L430.857 158.958H409.451L408.413 169.977C401.368 171.453 394.663 174.241 388.649 178.198L380.034 171.119L364.905 186.248L372.023 194.758C368.074 200.752 365.286 207.434 363.802 214.457L352.784 215.494V236.9L363.802 237.938C365.267 245.015 368.056 251.752 372.023 257.794L364.944 266.344L380.034 281.433L388.583 274.354C394.595 278.312 401.301 281.097 408.348 282.562ZM420.088 255.168C414.355 255.168 408.751 253.467 403.985 250.28C399.219 247.093 395.506 242.564 393.315 237.265C391.125 231.967 390.556 226.138 391.68 220.516C392.805 214.894 395.571 209.733 399.631 205.684C403.69 201.636 408.86 198.883 414.485 197.774C420.11 196.665 425.937 197.25 431.229 199.455C436.522 201.659 441.041 205.385 444.215 210.159C447.388 214.934 449.074 220.543 449.059 226.276C449.038 233.946 445.976 241.294 440.546 246.71C435.115 252.126 427.758 255.168 420.088 255.168Z" fill="#F0F0F0"/>
<path d="M294.724 432.458H320.202L321.436 419.325C329.825 417.569 337.809 414.25 344.97 409.541L355.147 417.959L373.152 399.954L364.734 389.777C369.443 382.616 372.762 374.632 374.518 366.243L387.651 365.009V339.531L374.518 338.297C372.766 329.907 369.447 321.923 364.734 314.763L373.152 304.586L355.147 286.568L344.97 294.999C337.812 290.283 329.827 286.964 321.436 285.215L320.202 272.082H294.724L293.49 285.215C285.099 286.964 277.114 290.283 269.956 294.999L259.779 286.568L241.761 304.586L250.192 314.763C245.479 321.923 242.16 329.907 240.408 338.297L227.275 339.531V365.009L240.408 366.243C242.16 374.629 245.479 382.609 250.192 389.763L241.761 399.954L259.779 417.959L269.956 409.541C277.117 414.25 285.101 417.569 293.49 419.325L294.724 432.458ZM307.463 386.782C300.642 386.782 293.975 384.76 288.303 380.97C282.632 377.181 278.212 371.795 275.602 365.494C272.992 359.192 272.309 352.258 273.639 345.568C274.97 338.879 278.255 332.734 283.078 327.911C287.901 323.088 294.045 319.803 300.735 318.473C307.425 317.142 314.359 317.825 320.66 320.435C326.962 323.045 332.348 327.466 336.137 333.137C339.927 338.808 341.949 345.475 341.949 352.296C341.935 361.433 338.296 370.192 331.83 376.648C325.364 383.104 316.6 386.73 307.463 386.73V386.782Z" fill="#F0F0F0"/>
<path d="M428.559 122.844C429.604 124.643 430.091 126.711 429.959 128.787C429.827 130.863 429.082 132.853 427.818 134.505C426.554 136.157 424.828 137.397 422.858 138.067C420.889 138.737 418.765 138.807 416.755 138.269C414.746 137.731 412.942 136.608 411.571 135.043C410.2 133.478 409.325 131.542 409.056 129.479C408.787 127.416 409.137 125.32 410.06 123.456C410.984 121.592 412.44 120.045 414.244 119.009C416.653 117.627 419.51 117.254 422.193 117.973C424.875 118.691 427.164 120.443 428.559 122.844Z" fill="#F0F0F0"/>
<path d="M416.844 127.164C417.159 127.729 417.816 127.703 418.604 127.506L417.409 125.431C416.673 126.035 416.542 126.652 416.844 127.164Z" fill="#E0E0E0"/>
<path d="M420.521 128.609L421.717 130.684C422.491 130.054 422.623 129.45 422.334 128.95C422.045 128.451 421.336 128.399 420.521 128.609Z" fill="#E0E0E0"/>
<path d="M415.006 120.335C413.47 121.22 412.232 122.54 411.447 124.128C410.662 125.716 410.365 127.502 410.595 129.259C410.825 131.015 411.571 132.665 412.738 133.998C413.905 135.33 415.442 136.287 417.153 136.747C418.864 137.206 420.673 137.148 422.351 136.579C424.029 136.01 425.501 134.956 426.58 133.551C427.659 132.146 428.297 130.452 428.413 128.684C428.529 126.916 428.118 125.153 427.232 123.619C426.646 122.599 425.864 121.706 424.932 120.989C424 120.272 422.936 119.746 421.8 119.441C420.664 119.137 419.48 119.059 418.314 119.212C417.148 119.365 416.024 119.747 415.006 120.335ZM422.452 131.945L423.201 133.258L422.242 133.809L421.493 132.496C420.452 133.067 419.26 133.305 418.079 133.179L417.987 131.721C418.961 131.846 419.951 131.686 420.837 131.262L419.523 128.937C418.053 129.371 416.411 129.752 415.479 128.123C414.796 126.928 415.058 125.391 416.792 124.183L416.03 122.87L416.989 122.318L417.737 123.632C418.598 123.189 419.554 122.963 420.521 122.975L420.718 124.433C419.941 124.422 419.171 124.579 418.46 124.892L419.773 127.256C421.244 126.823 422.899 126.416 423.831 128.031C424.461 129.174 424.172 130.71 422.452 131.945Z" fill="#E0E0E0"/>
<path d="M155.003 402.735C160.987 395.458 159.939 384.707 152.662 378.723C145.385 372.739 134.634 373.788 128.65 381.065C122.666 388.342 123.715 399.093 130.992 405.076C138.269 411.06 149.02 410.012 155.003 402.735Z" fill="#F0F0F0"/>
<path d="M140.062 387.675C139.734 388.673 140.482 389.422 141.585 390.171L142.78 386.454C141.218 386.205 140.351 386.756 140.062 387.675Z" fill="#E0E0E0"/>
<path d="M142.347 393.69L141.165 397.381C142.767 397.643 143.634 397.144 143.923 396.238C144.212 395.332 143.516 394.439 142.347 393.69Z" fill="#E0E0E0"/>
<path d="M146.287 377.997C143.544 377.116 140.601 377.068 137.831 377.859C135.061 378.651 132.587 380.246 130.724 382.444C128.861 384.641 127.691 387.342 127.363 390.205C127.035 393.067 127.563 395.962 128.881 398.524C130.199 401.086 132.247 403.2 134.766 404.598C137.286 405.996 140.163 406.615 143.034 406.377C145.905 406.14 148.642 405.055 150.897 403.262C153.152 401.469 154.824 399.047 155.703 396.304C156.88 392.627 156.549 388.634 154.784 385.201C153.018 381.769 149.962 379.177 146.287 377.997ZM140.43 399.626L139.681 401.964L137.974 401.412L138.709 399.101C136.886 398.458 135.299 397.282 134.152 395.726L135.768 393.913C136.688 395.216 137.959 396.231 139.432 396.842L140.745 392.666C138.604 391.353 136.359 389.803 137.291 386.901C137.974 384.76 140.115 383.407 143.476 384.13L144.238 381.766L145.959 382.317L145.21 384.642C146.688 385.182 148.007 386.085 149.045 387.268L147.508 389.107C146.668 388.167 145.638 387.416 144.488 386.901L143.174 391.116C145.315 392.429 147.6 393.966 146.668 396.868C145.972 399.048 143.818 400.375 140.43 399.626Z" fill="#E0E0E0"/>
<path d="M548.473 315.491C557.427 312.561 562.311 302.926 559.38 293.972C556.45 285.018 546.816 280.134 537.862 283.064C528.907 285.994 524.024 295.629 526.954 304.583C529.884 313.537 539.518 318.421 548.473 315.491Z" fill="#F0F0F0"/>
<path d="M538.807 297.796C539.345 298.702 540.409 298.637 541.696 298.308L539.687 294.946C538.531 295.957 538.36 296.969 538.807 297.796Z" fill="#E0E0E0"/>
<path d="M544.887 300.068L546.87 303.404C548.183 302.366 548.328 301.381 547.842 300.567C547.356 299.753 546.2 299.713 544.887 300.068Z" fill="#E0E0E0"/>
<path d="M535.72 286.686C533.247 288.161 531.267 290.337 530.03 292.938C528.793 295.539 528.354 298.448 528.77 301.298C529.187 304.147 530.438 306.81 532.367 308.948C534.296 311.087 536.816 312.606 539.608 313.312C542.4 314.019 545.339 313.882 548.053 312.919C550.767 311.956 553.135 310.209 554.856 307.901C556.578 305.592 557.577 302.825 557.726 299.948C557.875 297.072 557.169 294.216 555.695 291.742C553.715 288.424 550.5 286.028 546.754 285.08C543.009 284.132 539.04 284.71 535.72 286.686ZM548.104 305.413L549.352 307.527L547.816 308.447L546.568 306.358C544.877 307.301 542.941 307.712 541.013 307.54L540.724 305.137C542.311 305.307 543.913 305.024 545.347 304.323L543.101 300.554C540.711 301.289 538.058 301.946 536.535 299.319C535.392 297.402 535.786 294.894 538.557 292.858L537.244 290.731L538.793 289.811L540.041 291.9C541.424 291.15 542.973 290.762 544.546 290.77L544.913 293.134C543.65 293.143 542.402 293.416 541.249 293.935L543.521 297.744C545.924 297.008 548.59 296.299 550.153 298.925C551.296 300.882 550.875 303.391 548.104 305.452V305.413Z" fill="#E0E0E0"/>
<path d="M378.405 83.3803C376.377 86.0799 373.593 88.1172 370.407 89.2347C367.22 90.3522 363.774 90.4996 360.503 89.6582C357.233 88.8169 354.286 87.0246 352.034 84.5081C349.782 81.9916 348.328 78.8638 347.854 75.5204C347.38 72.1771 347.908 68.7682 349.371 65.725C350.835 62.6818 353.168 60.141 356.076 58.4239C358.983 56.7068 362.335 55.8905 365.706 56.0783C369.078 56.2661 372.318 57.4496 375.017 59.479C378.635 62.1996 381.025 66.2459 381.66 70.7281C382.296 75.2102 381.125 79.7612 378.405 83.3803Z" fill="#F0F0F0"/>
<path d="M364.458 68.5799C363.828 69.4203 364.288 70.379 365.076 71.4428L367.426 68.3172C366.034 67.5687 365.036 67.805 364.458 68.5799Z" fill="#E0E0E0"/>
<path d="M364.642 75.0149L362.318 78.1142C363.736 78.889 364.734 78.692 365.299 77.9435C365.864 77.1949 365.457 76.0918 364.642 75.0149Z" fill="#E0E0E0"/>
<path d="M373.52 61.4751C371.217 59.7444 368.454 58.7353 365.578 58.5753C362.702 58.4154 359.843 59.1118 357.363 60.5766C354.883 62.0413 352.892 64.2086 351.644 66.8043C350.396 69.4001 349.945 72.3078 350.349 75.1597C350.753 78.0116 351.993 80.6796 353.914 82.8265C355.834 84.9734 358.348 86.5026 361.137 87.2209C363.927 87.9391 366.866 87.8141 369.585 86.8617C372.303 85.9093 374.678 84.1722 376.409 81.87C377.559 80.3412 378.396 78.601 378.873 76.7486C379.35 74.8962 379.457 72.968 379.189 71.0741C378.921 69.1802 378.282 67.3578 377.309 65.7107C376.337 64.0637 375.049 62.6245 373.52 61.4751ZM360.873 80.0183L359.402 81.9882L357.958 80.9114L359.429 78.9546C357.912 77.7565 356.795 76.1262 356.224 74.2794L358.339 73.0975C358.793 74.6181 359.661 75.9822 360.847 77.0372L363.473 73.5308C361.884 71.6004 360.269 69.3941 362.16 66.9645C363.473 65.1785 365.969 64.6007 368.91 66.3867L370.394 64.4037L371.839 65.4937L370.368 67.4373C371.586 68.4344 372.534 69.7213 373.126 71.1801L371.077 72.4146C370.588 71.2506 369.863 70.2001 368.95 69.3284L366.323 72.8742C367.912 74.8047 369.567 77.0241 367.742 79.4405C366.31 81.2659 363.841 81.8175 360.873 80.0183Z" fill="#E0E0E0"/>
<path d="M120.271 137.303C122.274 138.361 123.918 139.989 124.996 141.982C126.073 143.975 126.535 146.243 126.323 148.498C126.112 150.753 125.236 152.895 123.807 154.653C122.377 156.411 120.459 157.705 118.294 158.372C116.129 159.039 113.815 159.049 111.645 158.401C109.474 157.752 107.544 156.475 106.1 154.73C104.656 152.985 103.761 150.85 103.53 148.597C103.299 146.343 103.741 144.072 104.801 142.07C106.221 139.387 108.649 137.378 111.55 136.484C114.45 135.59 117.587 135.885 120.271 137.303Z" fill="#F0F0F0"/>
<path d="M111.998 148.098C112.628 148.439 113.206 148.032 113.836 147.389L111.446 146.167C111.105 147.165 111.367 147.796 111.998 148.098Z" fill="#E0E0E0"/>
<path d="M116.174 147.297L118.485 148.518C118.84 147.494 118.616 146.85 118.052 146.561C117.487 146.272 116.817 146.64 116.174 147.297Z" fill="#E0E0E0"/>
<path d="M106.272 142.845C105.363 144.554 104.982 146.495 105.177 148.421C105.372 150.347 106.134 152.172 107.366 153.665C108.599 155.158 110.246 156.252 112.101 156.808C113.955 157.364 115.933 157.357 117.784 156.789C119.634 156.221 121.275 155.116 122.497 153.615C123.72 152.114 124.47 150.283 124.651 148.356C124.833 146.429 124.439 144.49 123.519 142.787C122.599 141.084 121.195 139.691 119.483 138.787C117.192 137.576 114.515 137.323 112.038 138.084C109.562 138.845 107.488 140.557 106.272 142.845ZM119.877 149.267L121.335 150.041L120.77 151.105L119.325 150.343C118.686 151.477 117.721 152.392 116.554 152.97L115.556 151.657C116.524 151.196 117.343 150.472 117.92 149.569L115.294 148.19C114.177 149.503 112.877 150.751 111.078 149.792C109.765 149.096 109.095 147.52 109.975 145.379L108.504 144.604L109.069 143.541L110.513 144.302C111.048 143.392 111.802 142.629 112.707 142.083L113.744 143.317C113.045 143.775 112.449 144.374 111.997 145.077L114.624 146.469C115.74 145.156 117.027 143.843 118.826 144.828C120.14 145.537 120.77 147.113 119.877 149.267Z" fill="#E0E0E0"/>
<path d="M325.468 240.249C327.372 241.259 328.933 242.81 329.956 244.707C330.978 246.603 331.416 248.761 331.213 250.906C331.009 253.051 330.175 255.088 328.815 256.759C327.455 258.43 325.63 259.661 323.57 260.296C321.511 260.93 319.31 260.94 317.245 260.324C315.18 259.708 313.344 258.494 311.969 256.835C310.594 255.176 309.741 253.147 309.519 251.003C309.297 248.86 309.715 246.699 310.72 244.793C312.073 242.235 314.387 240.319 317.153 239.467C319.919 238.615 322.91 238.896 325.468 240.249Z" fill="#F0F0F0"/>
<path d="M317.523 250.545C318.127 250.86 318.678 250.466 319.269 249.862L317.063 248.693C316.735 249.639 316.984 250.256 317.523 250.545Z" fill="#E0E0E0"/>
<path d="M321.567 249.77L323.761 250.939C324.102 249.954 323.879 249.35 323.353 249.074C322.828 248.798 322.119 249.14 321.567 249.77Z" fill="#E0E0E0"/>
<path d="M312.138 245.528C311.274 247.155 310.912 249.002 311.098 250.834C311.283 252.667 312.009 254.403 313.181 255.824C314.354 257.244 315.922 258.285 317.686 258.814C319.45 259.343 321.332 259.337 323.093 258.797C324.854 258.256 326.415 257.206 327.579 255.778C328.743 254.35 329.457 252.609 329.631 250.776C329.805 248.942 329.431 247.098 328.557 245.476C327.682 243.855 326.347 242.529 324.719 241.667C322.538 240.516 319.989 240.276 317.631 241C315.273 241.723 313.298 243.352 312.138 245.528ZM325.113 251.648L326.505 252.384L325.967 253.408L324.588 252.672C323.98 253.747 323.065 254.615 321.961 255.168L321.003 253.946C321.926 253.51 322.709 252.823 323.261 251.963L320.779 250.65C319.716 251.858 318.494 253.093 316.761 252.173C315.447 251.504 314.883 250.007 315.723 247.971L314.318 247.236L314.857 246.211L316.17 246.947C316.676 246.077 317.395 245.35 318.258 244.832L319.243 246.001C318.557 246.427 317.966 246.99 317.509 247.656L320.018 248.969C321.081 247.774 322.303 246.5 324.023 247.406C325.349 248.089 325.94 249.599 325.113 251.648Z" fill="#E0E0E0"/>
<path d="M486.736 381.043C485.226 385.719 482.363 389.842 478.511 392.893C474.659 395.943 469.989 397.783 465.092 398.18C460.194 398.578 455.289 397.516 450.995 395.127C446.701 392.738 443.211 389.131 440.966 384.76C438.721 380.389 437.822 375.451 438.381 370.57C438.941 365.688 440.935 361.082 444.111 357.333C447.287 353.584 451.503 350.86 456.226 349.505C460.95 348.151 465.968 348.226 470.649 349.722C473.763 350.72 476.651 352.322 479.146 354.436C481.641 356.551 483.694 359.137 485.188 362.046C486.683 364.956 487.588 368.131 487.854 371.391C488.119 374.651 487.74 377.931 486.736 381.043Z" fill="#F0F0F0"/>
<path d="M460.458 367.346C459.998 368.804 461.088 369.894 462.69 370.984L464.424 365.56C462.152 365.206 460.891 366.007 460.458 367.346Z" fill="#E0E0E0"/>
<path d="M463.807 376.106L462.073 381.49C464.397 381.871 465.684 381.135 466.105 379.835C466.525 378.535 465.461 377.209 463.807 376.106Z" fill="#E0E0E0"/>
<path d="M469.532 353.242C465.535 351.961 461.248 351.895 457.213 353.051C453.178 354.207 449.576 356.534 446.864 359.737C444.151 362.94 442.449 366.876 441.973 371.046C441.497 375.216 442.268 379.434 444.189 383.166C446.11 386.898 449.095 389.976 452.766 392.012C456.436 394.047 460.628 394.949 464.811 394.602C468.994 394.256 472.98 392.676 476.266 390.064C479.551 387.452 481.988 383.924 483.269 379.927C484.121 377.273 484.442 374.477 484.212 371.699C483.983 368.921 483.208 366.215 481.932 363.737C480.657 361.259 478.905 359.056 476.777 357.255C474.649 355.454 472.187 354.091 469.532 353.242ZM461.009 384.76L459.919 388.175L457.424 387.373L458.501 383.985C455.839 383.061 453.521 381.347 451.856 379.074L454.206 376.447C455.55 378.345 457.403 379.825 459.551 380.715L461.508 374.622C458.396 372.717 455.126 370.459 456.478 366.23C457.477 363.131 460.589 361.135 465.487 362.198L466.591 358.758L469.086 359.559L468.009 362.947C470.16 363.739 472.079 365.057 473.59 366.782L471.358 369.408C470.134 368.035 468.635 366.934 466.958 366.177L464.975 372.323C468.101 374.241 471.436 376.487 470.084 380.715C469.086 383.867 465.947 385.863 461.009 384.813V384.76Z" fill="#E0E0E0"/>
<path d="M112.191 297.433C125.127 292.831 131.883 278.615 127.282 265.679C122.681 252.743 108.465 245.987 95.5286 250.588C82.5928 255.189 75.8362 269.405 80.4373 282.341C85.0385 295.277 99.2551 302.034 112.191 297.433Z" fill="#F0F0F0"/>
<path d="M106.193 267.788C104.88 268.537 104.88 270.073 105.3 271.964L110.29 269.22C108.885 267.394 107.428 267.118 106.193 267.788Z" fill="#E0E0E0"/>
<path d="M102.595 276.443L97.6306 279.174C99.0621 281.052 100.494 281.393 101.702 280.724C102.91 280.054 103.041 278.386 102.595 276.443Z" fill="#E0E0E0"/>
<path d="M122.504 263.783C120.481 260.105 117.414 257.109 113.69 255.175C109.965 253.24 105.751 252.453 101.579 252.914C97.4073 253.374 93.4658 255.061 90.2529 257.762C87.04 260.462 84.6999 264.055 83.5284 268.085C82.357 272.115 82.4069 276.402 83.6717 280.404C84.9366 284.406 87.3596 287.943 90.6345 290.568C93.9094 293.192 97.889 294.787 102.07 295.151C106.251 295.514 110.447 294.629 114.125 292.609C119.057 289.895 122.71 285.335 124.281 279.93C125.852 274.525 125.213 268.717 122.504 263.783ZM94.5969 280.855L91.4582 282.575L90.145 280.277L93.2574 278.57C91.9678 276.063 91.4643 273.225 91.8128 270.428L95.3324 270.126C94.9974 272.43 95.3301 274.781 96.291 276.902L101.886 273.829C100.94 270.296 100.113 266.409 104.013 264.268C106.863 262.693 110.5 263.402 113.324 267.539L116.489 265.805L117.802 268.103L114.624 269.81C115.642 271.868 116.13 274.148 116.042 276.442L112.589 276.836C112.633 274.997 112.298 273.169 111.604 271.465L105.943 274.578C106.889 278.11 107.782 282.037 103.882 284.177C101.058 285.753 97.4467 285.005 94.5707 280.855H94.5969Z" fill="#E0E0E0"/>
<path d="M328.685 489.663C469.312 489.663 583.313 483.007 583.313 474.797C583.313 466.587 469.312 459.931 328.685 459.931C188.058 459.931 74.0574 466.587 74.0574 474.797C74.0574 483.007 188.058 489.663 328.685 489.663Z" fill="#F5F5F5"/>
<path d="M504.938 68.4092H499.685C485.239 68.4092 473.511 82.553 473.511 100.006C473.511 117.459 485.226 131.603 499.685 131.603H504.938C519.384 131.603 531.124 117.459 531.124 100.006C531.124 82.553 519.397 68.4092 504.938 68.4092Z" fill="#0A97D4"/>
<path opacity="0.2" d="M504.938 68.4092H499.685C485.239 68.4092 473.511 82.553 473.511 100.006C473.511 117.459 485.226 131.603 499.685 131.603H504.938C519.384 131.603 531.124 117.459 531.124 100.006C531.124 82.553 519.397 68.4092 504.938 68.4092Z" fill="black"/>
<path d="M499.672 131.603C514.134 131.603 525.858 117.457 525.858 100.006C525.858 82.5556 514.134 68.4092 499.672 68.4092C485.209 68.4092 473.485 82.5556 473.485 100.006C473.485 117.457 485.209 131.603 499.672 131.603Z" fill="#0A97D4"/>
<path opacity="0.3" d="M499.672 126.98C512.016 126.98 522.023 114.904 522.023 100.006C522.023 85.1086 512.016 73.0317 499.672 73.0317C487.327 73.0317 477.32 85.1086 477.32 100.006C477.32 114.904 487.327 126.98 499.672 126.98Z" fill="white"/>
<path d="M501.274 114.544V119.101H498.516V114.649C495.46 114.509 492.546 113.316 490.269 111.274L491.779 107.163C493.631 108.896 495.995 109.979 498.516 110.25V102.134C494.773 101.03 490.768 99.5071 490.768 93.9257C490.768 89.7758 493.263 86.1644 498.516 85.5471V80.9639H501.274V85.4683C503.747 85.6134 506.125 86.4759 508.116 87.9504L506.737 92.0478C505.117 90.8909 503.244 90.1389 501.274 89.8546V98.0625C505.017 99.1656 509.088 100.584 509.088 106.231C509.088 110.328 506.566 113.9 501.274 114.544ZM498.516 97.1563V89.9203C497.583 89.9841 496.709 90.4039 496.076 91.0931C495.443 91.7822 495.099 92.6881 495.115 93.6237C495.115 95.5804 496.559 96.4734 498.516 97.1563ZM504.78 106.546C504.78 104.55 503.296 103.618 501.274 102.935V110.118C503.73 109.672 504.78 108.293 504.78 106.546Z" fill="#0A97D4"/>
<path d="M541.039 151.696H469.204C467.588 151.696 466.038 152.338 464.895 153.481C463.752 154.624 463.11 156.173 463.11 157.79V474.482H547.159V157.79C547.161 156.987 547.003 156.191 546.696 155.45C546.389 154.708 545.938 154.034 545.369 153.468C544.8 152.901 544.124 152.453 543.381 152.149C542.638 151.845 541.842 151.691 541.039 151.696Z" fill="#0A97D4"/>
<path opacity="0.1" d="M541.039 151.696H469.204C467.588 151.696 466.038 152.338 464.895 153.481C463.752 154.624 463.11 156.173 463.11 157.79V474.482H547.159V157.79C547.161 156.987 547.003 156.191 546.696 155.45C546.389 154.708 545.938 154.034 545.369 153.468C544.8 152.901 544.124 152.453 543.381 152.149C542.638 151.845 541.842 151.691 541.039 151.696Z" fill="white"/>
<path opacity="0.3" d="M469.204 151.696H537.152C538.768 151.696 540.318 152.338 541.461 153.481C542.603 154.624 543.246 156.173 543.246 157.79V474.482H463.137V157.79C463.137 156.178 463.775 154.632 464.912 153.49C466.049 152.348 467.592 151.703 469.204 151.696Z" fill="white"/>
<path d="M419.747 256.822H347.859C346.252 256.836 344.715 257.484 343.584 258.626C342.453 259.767 341.818 261.309 341.818 262.916V318.69H379.114C378.168 317.746 377.419 316.624 376.909 315.389C376.4 314.154 376.14 312.83 376.146 311.493C376.12 309.227 376.87 307.02 378.273 305.24C379.675 303.46 381.646 302.214 383.855 301.71C386.064 302.214 388.032 303.461 389.433 305.241C390.833 307.021 391.581 309.228 391.551 311.493C391.559 312.829 391.302 314.152 390.794 315.388C390.287 316.623 389.54 317.745 388.596 318.69H425.866V262.916C425.868 262.113 425.711 261.318 425.404 260.576C425.096 259.834 424.645 259.16 424.076 258.594C423.507 258.027 422.832 257.579 422.089 257.275C421.346 256.971 420.55 256.817 419.747 256.822Z" fill="#0A97D4"/>
<path d="M392.483 379.205H388.544C389.487 380.15 390.235 381.272 390.742 382.507C391.249 383.743 391.506 385.066 391.498 386.402C391.528 388.667 390.781 390.874 389.38 392.654C387.98 394.434 386.011 395.681 383.803 396.186C381.593 395.681 379.623 394.435 378.22 392.655C376.818 390.875 376.067 388.668 376.094 386.402C376.088 385.065 376.347 383.741 376.857 382.506C377.366 381.271 378.116 380.149 379.062 379.205H341.818V474.482H425.866V379.205H392.483Z" fill="#0A97D4"/>
<path opacity="0.1" d="M419.747 256.822H347.859C346.252 256.836 344.715 257.484 343.584 258.626C342.453 259.767 341.818 261.309 341.818 262.916V318.69H379.114C378.168 317.746 377.419 316.624 376.909 315.389C376.4 314.154 376.14 312.83 376.146 311.493C376.12 309.227 376.87 307.02 378.273 305.24C379.675 303.46 381.646 302.214 383.855 301.71C386.064 302.214 388.032 303.461 389.433 305.241C390.833 307.021 391.581 309.228 391.551 311.493C391.559 312.829 391.302 314.152 390.794 315.388C390.287 316.623 389.54 317.745 388.596 318.69H425.866V262.916C425.868 262.113 425.711 261.318 425.404 260.576C425.096 259.834 424.645 259.16 424.076 258.594C423.507 258.027 422.832 257.579 422.089 257.275C421.346 256.971 420.55 256.817 419.747 256.822Z" fill="white"/>
<path opacity="0.1" d="M392.483 379.205H388.544C389.487 380.15 390.235 381.272 390.742 382.507C391.249 383.743 391.506 385.066 391.498 386.402C391.528 388.667 390.781 390.874 389.38 392.654C387.98 394.434 386.011 395.681 383.803 396.186C381.593 395.681 379.623 394.435 378.22 392.655C376.818 390.875 376.067 388.668 376.094 386.402C376.088 385.065 376.347 383.741 376.857 382.506C377.366 381.271 378.116 380.149 379.062 379.205H341.818V474.482H425.866V379.205H392.483Z" fill="white"/>
<path opacity="0.3" d="M388.544 379.205C389.487 380.15 390.235 381.272 390.742 382.507C391.249 383.743 391.506 385.066 391.498 386.402C391.546 387.702 391.332 388.998 390.867 390.214C390.403 391.429 389.698 392.538 388.795 393.475C387.892 394.412 386.81 395.157 385.612 395.666C384.415 396.175 383.127 396.437 381.826 396.437C380.525 396.437 379.238 396.175 378.04 395.666C376.843 395.157 375.76 394.412 374.858 393.475C373.955 392.538 373.25 391.429 372.785 390.214C372.321 388.998 372.106 387.702 372.154 386.402C372.148 385.065 372.407 383.741 372.917 382.506C373.426 381.271 374.176 380.149 375.122 379.205H341.818V474.482H421.927V379.205H388.544Z" fill="white"/>
<path opacity="0.3" d="M341.818 262.916V318.69H375.175C374.228 317.746 373.479 316.625 372.969 315.389C372.46 314.154 372.201 312.83 372.207 311.493C372.159 310.193 372.373 308.897 372.838 307.681C373.302 306.466 374.007 305.357 374.91 304.42C375.813 303.483 376.895 302.738 378.093 302.229C379.29 301.72 380.578 301.458 381.879 301.458C383.18 301.458 384.468 301.72 385.665 302.229C386.862 302.738 387.945 303.483 388.848 304.42C389.75 305.357 390.455 306.466 390.92 307.681C391.384 308.897 391.599 310.193 391.551 311.493C391.559 312.829 391.302 314.152 390.794 315.388C390.287 316.623 389.54 317.745 388.596 318.69H421.927V262.916C421.928 262.116 421.772 261.324 421.468 260.585C421.163 259.846 420.715 259.174 420.15 258.608C419.586 258.042 418.915 257.593 418.176 257.286C417.438 256.98 416.646 256.822 415.846 256.822H347.859C346.252 256.836 344.715 257.484 343.584 258.626C342.453 259.767 341.818 261.309 341.818 262.916Z" fill="white"/>
<path d="M239.147 134.611H205.764C204.415 134.609 203.078 134.873 201.83 135.389C200.583 135.904 199.449 136.66 198.494 137.614C197.539 138.568 196.781 139.7 196.264 140.947C195.747 142.194 195.481 143.531 195.481 144.88V178.592C195.481 181.317 196.563 183.93 198.489 185.858C200.414 187.786 203.026 188.871 205.751 188.874H218.962L222.456 198.067L225.936 188.874H239.147C241.872 188.871 244.484 187.786 246.41 185.858C248.335 183.93 249.417 181.317 249.417 178.592V144.854C249.41 142.135 248.325 139.53 246.4 137.609C244.475 135.689 241.866 134.611 239.147 134.611Z" fill="#0A97D4"/>
<path opacity="0.4" d="M239.147 134.611H205.764C204.415 134.609 203.078 134.873 201.83 135.389C200.583 135.904 199.449 136.66 198.494 137.614C197.539 138.568 196.781 139.7 196.264 140.947C195.747 142.194 195.481 143.531 195.481 144.88V178.592C195.481 181.317 196.563 183.93 198.489 185.858C200.414 187.786 203.026 188.871 205.751 188.874H218.962L222.456 198.067L225.936 188.874H239.147C241.872 188.871 244.484 187.786 246.41 185.858C248.335 183.93 249.417 181.317 249.417 178.592V144.854C249.41 142.135 248.325 139.53 246.4 137.609C244.475 135.689 241.866 134.611 239.147 134.611Z" fill="white"/>
<path d="M222.622 182.773C225.69 182.751 228.166 181.263 228.153 179.45C228.14 177.636 225.642 176.185 222.574 176.207C219.506 176.23 217.03 177.718 217.043 179.531C217.056 181.344 219.554 182.796 222.622 182.773Z" fill="#263238"/>
<path opacity="0.4" d="M222.622 182.773C225.69 182.751 228.166 181.263 228.153 179.45C228.14 177.636 225.642 176.185 222.574 176.207C219.506 176.23 217.03 177.718 217.043 179.531C217.056 181.344 219.554 182.796 222.622 182.773Z" fill="white"/>
<path d="M230.519 173.404C230.815 173.116 230.988 172.726 231.005 172.314C231.005 170.541 227.197 169.123 222.535 169.162C217.873 169.202 214.104 170.66 214.117 172.446C214.139 172.855 214.318 173.241 214.616 173.522C214.534 173.7 214.489 173.892 214.484 174.087C214.494 174.29 214.544 174.488 214.632 174.671C214.72 174.854 214.844 175.017 214.997 175.151C214.905 175.33 214.855 175.528 214.852 175.729C214.865 175.932 214.918 176.131 215.008 176.313C215.098 176.496 215.224 176.659 215.377 176.792C215.273 176.972 215.219 177.176 215.22 177.383C215.234 177.586 215.289 177.783 215.381 177.964C215.474 178.145 215.602 178.305 215.758 178.434C215.652 178.613 215.593 178.817 215.588 179.025C215.588 180.509 218.753 181.652 222.627 181.652C226.501 181.652 229.639 180.338 229.626 178.92C229.622 178.71 229.558 178.505 229.442 178.329C229.599 178.201 229.727 178.041 229.818 177.86C229.908 177.679 229.96 177.481 229.968 177.278C229.97 177.069 229.911 176.863 229.797 176.687C230.042 176.504 230.216 176.241 230.287 175.944C230.359 175.647 230.325 175.334 230.191 175.059C230.489 174.777 230.668 174.392 230.69 173.982C230.679 173.779 230.62 173.581 230.519 173.404Z" fill="#263238"/>
<path d="M237.401 157.566C237.391 155.041 236.741 152.56 235.513 150.354C234.284 148.148 232.517 146.289 230.375 144.951C228.234 143.613 225.788 142.839 223.267 142.702C220.745 142.565 218.23 143.069 215.957 144.167C213.683 145.265 211.724 146.922 210.264 148.982C208.804 151.042 207.889 153.438 207.606 155.948C207.322 158.457 207.679 160.997 208.643 163.331C209.607 165.665 211.147 167.716 213.119 169.294C213.435 169.546 213.685 169.872 213.848 170.242C214.01 170.613 214.08 171.018 214.051 171.421C214.045 171.46 214.045 171.5 214.051 171.539C214.051 173.339 217.912 174.783 222.653 174.744C227.394 174.704 231.215 173.22 231.202 171.408V171.29C231.167 170.886 231.231 170.48 231.389 170.107C231.547 169.734 231.794 169.405 232.108 169.149C233.789 167.728 235.135 165.952 236.05 163.95C236.965 161.947 237.426 159.768 237.401 157.566Z" fill="#0A97D4"/>
<path opacity="0.9" d="M237.401 157.566C237.391 155.041 236.741 152.56 235.513 150.354C234.284 148.148 232.517 146.289 230.375 144.951C228.234 143.613 225.788 142.839 223.267 142.702C220.745 142.565 218.23 143.069 215.957 144.167C213.683 145.265 211.724 146.922 210.264 148.982C208.804 151.042 207.889 153.438 207.606 155.948C207.322 158.457 207.679 160.997 208.643 163.331C209.607 165.665 211.147 167.716 213.119 169.294C213.435 169.546 213.685 169.872 213.848 170.242C214.01 170.613 214.08 171.018 214.051 171.421C214.045 171.46 214.045 171.5 214.051 171.539C214.051 173.339 217.912 174.783 222.653 174.744C227.394 174.704 231.215 173.22 231.202 171.408V171.29C231.167 170.886 231.231 170.48 231.389 170.107C231.547 169.734 231.794 169.405 232.108 169.149C233.789 167.728 235.135 165.952 236.05 163.95C236.965 161.947 237.426 159.768 237.401 157.566Z" fill="white"/>
<g opacity="0.2">
<path d="M219.488 172.682C219.345 172.682 219.208 172.625 219.107 172.524C219.006 172.423 218.95 172.286 218.95 172.143C218.95 166.995 214.734 163.056 214.695 163.016C214.62 162.942 214.569 162.847 214.548 162.744C214.526 162.64 214.536 162.533 214.575 162.435C214.614 162.337 214.681 162.253 214.768 162.193C214.855 162.133 214.957 162.1 215.062 162.097H217.518L218.267 160.311C218.303 160.217 218.365 160.136 218.447 160.078C218.529 160.019 218.626 159.986 218.726 159.983C218.827 159.974 218.929 159.996 219.018 160.045C219.107 160.094 219.179 160.168 219.225 160.258L220.631 162.793L221.944 160.232C221.995 160.148 222.066 160.078 222.151 160.027C222.236 159.977 222.331 159.948 222.43 159.943C222.527 159.95 222.622 159.982 222.704 160.035C222.787 160.087 222.855 160.16 222.902 160.245L224.294 163.108L225.608 160.232C225.653 160.141 225.722 160.063 225.807 160.008C225.893 159.952 225.992 159.921 226.094 159.917C226.197 159.92 226.298 159.953 226.384 160.011C226.47 160.069 226.538 160.15 226.58 160.245L227.354 162.031H229.81C229.927 162.033 230.04 162.072 230.132 162.143C230.224 162.214 230.291 162.313 230.322 162.425C230.354 162.538 230.348 162.658 230.305 162.767C230.263 162.876 230.186 162.968 230.086 163.029C226.58 165.104 225.595 172.157 225.582 172.222C225.553 172.355 225.475 172.471 225.364 172.549C225.253 172.627 225.117 172.66 224.983 172.641C224.849 172.623 224.726 172.555 224.64 172.451C224.554 172.346 224.51 172.213 224.518 172.078C224.518 171.802 225.358 166.063 228.274 163.121H226.96C226.855 163.125 226.751 163.097 226.662 163.04C226.573 162.984 226.503 162.903 226.461 162.806L226.015 161.782L224.702 164.605C224.657 164.696 224.588 164.773 224.502 164.826C224.416 164.88 224.317 164.908 224.216 164.907C224.115 164.905 224.017 164.876 223.932 164.822C223.846 164.769 223.777 164.694 223.73 164.605L222.298 161.69L220.985 164.198C220.938 164.282 220.87 164.352 220.786 164.401C220.703 164.449 220.609 164.474 220.512 164.474C220.315 164.474 220.131 164.369 220.04 164.198L218.726 161.769L218.28 162.859C218.237 162.956 218.167 163.038 218.079 163.096C217.99 163.154 217.887 163.186 217.781 163.187H216.205C218.447 165.665 219.76 168.845 219.921 172.183C219.921 172.323 219.866 172.458 219.768 172.559C219.67 172.66 219.537 172.718 219.396 172.721L219.488 172.682Z" fill="black"/>
</g>
<path d="M177.161 447.363H105.287C104.485 447.361 103.691 447.518 102.95 447.825C102.209 448.131 101.536 448.581 100.969 449.149C100.403 449.716 99.9545 450.39 99.6497 451.132C99.3449 451.873 99.1897 452.668 99.1932 453.47V474.482H183.242V453.47C183.245 452.669 183.09 451.876 182.786 451.135C182.482 450.394 182.035 449.721 181.47 449.153C180.905 448.586 180.234 448.136 179.494 447.829C178.755 447.521 177.962 447.363 177.161 447.363Z" fill="#0A97D4"/>
<path opacity="0.1" d="M177.161 447.363H105.287C104.485 447.361 103.691 447.518 102.95 447.825C102.209 448.131 101.536 448.581 100.969 449.149C100.403 449.716 99.9545 450.39 99.6497 451.132C99.3449 451.873 99.1897 452.668 99.1932 453.47V474.482H183.242V453.47C183.245 452.669 183.09 451.876 182.786 451.135C182.482 450.394 182.035 449.721 181.47 449.153C180.905 448.586 180.234 448.136 179.494 447.829C178.755 447.521 177.962 447.363 177.161 447.363Z" fill="white"/>
<path opacity="0.3" d="M105.287 447.363H173.235C174.851 447.363 176.401 448.005 177.544 449.148C178.686 450.291 179.328 451.841 179.328 453.457V474.482H99.2195V453.47C99.216 451.856 99.8529 450.307 100.99 449.162C102.128 448.017 103.673 447.37 105.287 447.363Z" fill="white"/>
<path d="M298.48 382.422H226.566C225.767 382.422 224.975 382.58 224.236 382.887C223.498 383.193 222.827 383.642 222.262 384.208C221.697 384.774 221.25 385.446 220.945 386.185C220.64 386.924 220.484 387.716 220.486 388.516V474.482H304.534V388.463C304.521 386.863 303.878 385.333 302.745 384.202C301.612 383.072 300.081 382.433 298.48 382.422Z" fill="#0A97D4"/>
<path opacity="0.1" d="M298.48 382.422H226.566C225.767 382.422 224.975 382.58 224.236 382.887C223.498 383.193 222.827 383.642 222.262 384.208C221.697 384.774 221.25 385.446 220.945 386.185C220.64 386.924 220.484 387.716 220.486 388.516V474.482H304.534V388.463C304.521 386.863 303.878 385.333 302.745 384.202C301.612 383.072 300.081 382.433 298.48 382.422Z" fill="white"/>
<path opacity="0.3" d="M226.566 382.422H294.54C296.157 382.422 297.706 383.064 298.849 384.207C299.992 385.35 300.634 386.9 300.634 388.516V474.482H220.525V388.463C220.539 386.866 221.18 385.337 222.31 384.207C223.44 383.077 224.968 382.436 226.566 382.422Z" fill="white"/>
<path d="M243.205 262.758C248.169 265.871 257.52 284.585 257.52 284.585L249.286 290.967L238.07 278.307L243.205 262.758Z" fill="#263238"/>
<path opacity="0.4" d="M257.52 284.585L249.286 290.967L243.087 284.059L238.07 278.307L239.909 272.805L243.271 262.758C248.169 265.871 257.52 284.585 257.52 284.585Z" fill="white"/>
<path opacity="0.2" d="M243.087 284.059L238.07 278.307L239.909 272.805C241.488 276.39 242.557 280.178 243.087 284.059Z" fill="black"/>
<path d="M233.829 323.72L199.802 318.782L203.453 281.617L237.992 285.399L233.829 323.72Z" fill="#263238"/>
<path opacity="0.3" d="M233.829 323.72L199.802 318.782L203.453 281.617L237.992 285.399L233.829 323.72Z" fill="white"/>
<path d="M185.382 378.969L212.133 380.82L211.529 370.432L182.625 373.387" fill="#FFC2BC"/>
<path d="M178.672 369.539L178.264 370.997L179.945 371.903C178.022 374.029 176.397 376.406 175.113 378.969C173.797 381.891 173.057 385.038 172.933 388.24C172.933 388.24 174.325 390.722 177.529 385.377C177.683 385.118 177.863 384.876 178.067 384.655C180.405 382.029 186.538 378.982 186.538 378.982L188.455 372.31C188.201 372.022 187.929 371.75 187.641 371.496C186.47 370.377 185.014 369.603 183.431 369.258C181.849 368.912 180.202 369.01 178.672 369.539Z" fill="#263238"/>
<path d="M187.641 371.496C188.364 372.665 182.914 375.436 180.602 377.957C178.554 380.203 177.135 382.974 178.081 384.668C180.418 382.042 188.114 378.942 188.114 378.942L189.651 373.584C189.651 373.584 188.167 372.048 187.641 371.496Z" fill="#FFC2BC"/>
<path d="M227.446 304.481L231.215 321.881C231.215 321.881 265.846 355.448 265.701 368.502C265.701 371.207 268.459 379.428 247.408 381.989C236.783 383.302 193.892 380.124 193.892 380.124V370.735C193.892 370.735 223.664 366.151 239.646 365.849L204.359 334.41L192.461 319.268L201.654 298.111L227.446 304.481Z" fill="#263238"/>
<path opacity="0.2" d="M247.408 381.989C241.94 382.372 236.453 382.425 230.979 382.147C214.747 381.661 193.892 380.124 193.892 380.124V370.735C193.892 370.735 214.642 367.543 230.795 366.309C233.999 366.072 237.007 365.902 239.646 365.849L227.63 355.146L204.359 334.41L199.802 328.605L192.461 319.268L201.654 298.111L227.486 304.507L231.255 321.908C231.255 321.908 265.885 355.474 265.741 368.528C265.649 371.207 268.459 379.428 247.408 381.989Z" fill="white"/>
<path opacity="0.2" d="M204.359 334.384L199.802 328.579L208.509 323.195C208.509 323.195 219.855 333.372 227.63 355.12L204.359 334.384Z" fill="black"/>
<path opacity="0.2" d="M230.979 382.147C214.747 381.661 193.892 380.124 193.892 380.124V370.735C193.892 370.735 214.642 367.543 230.795 366.309C231.59 371.554 231.652 376.884 230.979 382.147Z" fill="black"/>
<path d="M156.412 446.667H157.922L158.395 444.815L163.32 447.219L175.953 447.586C175.953 447.586 178.015 445.63 172.014 443.844C171.72 443.749 171.434 443.63 171.16 443.489C167.995 441.887 163.582 436.673 163.582 436.673L156.648 436.476C155.628 437.961 155.059 439.71 155.01 441.511C154.961 443.312 155.434 445.089 156.373 446.628L156.412 446.667Z" fill="#263238"/>
<path d="M156.097 437.501C157.042 436.502 161.074 441.112 164.081 442.754C166.708 444.185 169.807 444.881 171.199 443.542C168.034 441.939 163.188 435.229 163.188 435.229L157.607 435.058C157.607 435.058 156.438 436.857 156.097 437.501Z" fill="#FFC2BC"/>
<path d="M163.622 436.713L182.808 417.999L174.666 411.524L157.607 435.045" fill="#FFC2BC"/>
<path d="M225.594 373.361C223.283 357.733 218.555 337.68 214.616 322.144L212.843 302.445L193.892 299.175C193.892 299.175 184.7 315.446 188.941 330.811C192.198 342.762 199.447 357.287 208.995 374.372C188.153 390.972 171.002 412.378 161.271 426.994C162.055 428.323 163.048 429.516 164.213 430.527C165.549 431.82 167.136 432.825 168.875 433.482C184.174 418.852 205.121 400.65 219.882 386.848C224.82 382.396 226.829 378.693 225.594 373.361Z" fill="#263238"/>
<path opacity="0.2" d="M225.594 373.361C223.283 357.733 218.555 337.68 214.616 322.144L212.843 302.445L193.892 299.175C193.892 299.175 184.7 315.446 188.941 330.811C192.198 342.762 199.447 357.287 208.995 374.372C188.153 390.972 171.002 412.378 161.271 426.994C162.055 428.323 163.048 429.516 164.213 430.527C165.549 431.82 167.136 432.825 168.875 433.482C184.174 418.852 205.121 400.65 219.882 386.848C224.82 382.396 226.829 378.693 225.594 373.361Z" fill="white"/>
<path d="M243.205 262.758C243.205 262.758 240.316 286.069 227.446 304.481C227.446 304.481 199.999 301.027 193.892 299.228C197.688 287.986 199.96 280.474 201.535 259.383C201.916 254.301 206.526 251.372 211.556 252.279C216.505 252.616 221.391 253.587 226.093 255.168C231.942 257.36 237.655 259.894 243.205 262.758Z" fill="#0A97D4"/>
<path opacity="0.8" d="M243.205 262.758C242.343 268.585 240.999 274.331 239.187 279.936C236.509 288.653 232.553 296.925 227.446 304.481C227.446 304.481 199.999 301.027 193.879 299.228C194.601 297.113 195.271 295.13 195.875 293.16C197.981 286.487 199.441 279.626 200.235 272.673C200.669 269.39 201.023 265.674 201.391 261.379C201.391 260.736 201.483 260.066 201.535 259.396C201.916 254.301 206.526 251.372 211.556 252.279C212.265 252.41 213.775 252.436 216.152 252.778C216.375 252.778 216.585 252.778 216.796 252.856C219.95 253.367 223.059 254.127 226.093 255.128C227.617 255.614 229.416 256.323 231.346 257.124C236.993 259.567 243.205 262.758 243.205 262.758Z" fill="white"/>
<path d="M215.6 278.373C215.259 281.275 214.865 284.361 214.353 287.645C214.274 288.117 214.222 288.38 214.222 288.38C213.696 291.716 213.053 295.235 212.291 298.886C210.605 307.084 208.479 315.185 205.922 323.155L184.831 317.114C184.831 317.114 194.93 292.162 197.372 283.928C197.652 282.978 197.88 282.014 198.055 281.039C198.948 276.311 199.29 270.086 199.815 264.82C200.262 260.355 200.853 256.56 202.021 254.931C204.149 251.976 211.214 252.305 214.747 252.594H214.878C215.469 252.594 215.955 252.712 216.283 252.764H216.796C217.07 261.319 216.671 269.881 215.6 278.373Z" fill="#263238"/>
<path d="M231.294 257.151C231.294 257.151 238.53 272.805 232.279 324.784L236.797 323.575L239.384 288.735C239.384 288.735 243.218 269.522 243.245 262.758C243.205 262.758 234.406 257.361 231.294 257.151Z" fill="#263238"/>
<path opacity="0.4" d="M215.6 278.373C215.259 281.275 214.865 284.361 214.353 287.645C214.274 288.117 214.222 288.38 214.222 288.38C213.696 291.716 213.053 295.235 212.291 298.886C210.605 307.084 208.479 315.185 205.922 323.155L184.831 317.114C184.831 317.114 194.93 292.162 197.372 283.928C197.652 282.978 197.88 282.014 198.055 281.039C198.948 276.311 199.29 270.086 199.815 264.82C200.262 260.355 200.853 256.56 202.021 254.931C204.149 251.976 211.214 252.305 214.747 252.594H214.878C215.469 252.594 215.955 252.712 216.283 252.764H216.796C217.07 261.319 216.671 269.881 215.6 278.373Z" fill="white"/>
<path opacity="0.4" d="M231.294 257.151C231.294 257.151 238.53 272.805 232.279 324.784L236.797 323.575L239.384 288.735C239.384 288.735 243.218 269.522 243.245 262.758C243.205 262.758 234.406 257.361 231.294 257.151Z" fill="white"/>
<path d="M215.745 278.806C215.193 282.969 214.629 286.292 214.432 287.71C214.353 288.183 214.3 288.446 214.3 288.446L211.043 268.3L210.071 262.102L214.747 263.205L207.865 257.151L214.747 252.633H214.878L216.283 252.804H216.795C217.938 259.383 216.822 270.651 215.745 278.806Z" fill="#263238"/>
<path d="M231.294 257.151L230.362 255.916C230.362 255.916 236.928 260.079 239.462 265.109L235.444 266.829L238.714 267.998L234.866 289.995C234.866 289.995 233.553 265.595 231.36 258.031" fill="#263238"/>
<path opacity="0.2" d="M215.745 278.806C215.193 282.969 214.629 286.292 214.432 287.71C214.353 288.183 214.3 288.446 214.3 288.446L211.043 268.3L210.071 262.102L214.747 263.205L207.865 257.151L214.747 252.633H214.878L216.283 252.804H216.795C217.938 259.383 216.822 270.651 215.745 278.806Z" fill="white"/>
<path opacity="0.2" d="M231.294 257.151L230.362 255.916C230.362 255.916 236.928 260.079 239.462 265.109L235.444 266.829L238.714 267.998L234.866 289.995C234.866 289.995 233.553 265.595 231.36 258.031" fill="white"/>
<path opacity="0.2" d="M215.745 278.806C215.194 282.969 214.629 286.292 214.432 287.71C214.353 288.183 214.3 288.446 214.3 288.446C213.775 291.781 213.132 295.301 212.37 298.952C206.198 297.048 201.352 288.643 198.134 281.105C199.027 276.377 199.369 270.152 199.894 264.886C202.98 263.573 206.46 262.811 208.509 264.518C209.574 265.617 210.46 266.875 211.136 268.248C212.909 271.507 214.432 274.896 215.693 278.386L215.745 278.806Z" fill="black"/>
<path d="M214.432 264.361C214.432 264.361 211.227 246.106 225.673 252.095C234.787 255.864 234.866 269.456 234.866 269.456L230.834 265.319C229.684 269.319 228.245 273.23 226.527 277.02C223.08 272.705 220.571 267.717 219.159 262.378L214.432 264.361Z" fill="#0A97D4"/>
<path opacity="0.7" d="M214.432 264.361C214.432 264.361 211.227 246.106 225.673 252.095C234.787 255.864 234.866 269.456 234.866 269.456L230.834 265.319C229.684 269.319 228.245 273.23 226.527 277.02C223.08 272.705 220.571 267.717 219.159 262.378L214.432 264.361Z" fill="white"/>
<path d="M229.705 259.987C230.165 265.437 226.461 276.705 226.461 276.705C220.854 271.229 219.094 253.592 219.094 253.592C220.748 253.408 221.51 250.558 221.865 247.814C222.075 246.097 222.176 244.369 222.167 242.639L231.202 245.712C229.84 248.69 229.051 251.898 228.878 255.168C228.827 256.133 228.907 257.1 229.114 258.044C229.275 258.702 229.472 259.351 229.705 259.987Z" fill="#FFC2BC"/>
<path opacity="0.2" d="M231.202 245.712C229.84 248.69 229.051 251.898 228.878 255.168C225.835 253.495 223.375 250.934 221.825 247.827C222.036 246.11 222.136 244.382 222.127 242.652L231.202 245.712Z" fill="black"/>
<path d="M216.191 222.94C216.191 222.94 213.565 217.438 207.931 219.828C202.297 222.218 202.56 233.972 211.753 230.334C220.945 226.696 216.191 222.94 216.191 222.94Z" fill="#263238"/>
<path d="M219.488 222.481C219.488 222.481 216.296 221.102 212.921 225.028C209.546 228.955 211.844 233.525 212.724 233.039C213.604 232.553 219.934 224.963 219.488 222.481Z" fill="#0A97D4"/>
<path d="M226.553 246.264C226.553 246.264 217.15 251.661 211.897 238.122C206.644 224.582 226.054 213.17 232.134 224.7C238.215 236.23 226.553 246.264 226.553 246.264Z" fill="#263238"/>
<path d="M215.745 235.009C218.371 242.744 219.343 246.067 224.426 249.232C232.082 253.986 241.025 249.586 240.749 241.352C240.5 233.932 236.219 222.533 227.617 221.089C225.79 220.734 223.902 220.87 222.145 221.484C220.388 222.099 218.826 223.168 217.618 224.584C216.411 226 215.601 227.712 215.272 229.543C214.943 231.375 215.106 233.261 215.745 235.009Z" fill="#FFC2BC"/>
<path d="M221.694 228.285C218.122 234.576 228.076 239.79 219.067 240.709C210.059 241.628 211.818 228.377 216.756 224.713C221.694 221.049 221.694 228.285 221.694 228.285Z" fill="#263238"/>
<path d="M216.743 224.805C218.647 230.058 219.724 231.371 224.334 229.178C223.459 228.194 222.953 226.936 222.902 225.619C223.563 226.873 224.69 227.816 226.041 228.246C227.25 227.506 228.536 226.898 229.876 226.434C229.508 225.718 229.311 224.927 229.298 224.122C229.805 224.969 230.549 225.649 231.438 226.079C232.924 225.879 234.432 225.923 235.903 226.21C235.05 220.458 224.478 215.77 216.743 224.805Z" fill="#263238"/>
<path d="M228.47 234.523C228.667 235.18 229.166 235.64 229.6 235.534C230.033 235.429 230.217 234.838 230.02 234.221C229.823 233.604 229.324 233.105 228.891 233.197C228.457 233.289 228.287 233.853 228.47 234.523Z" fill="#263238"/>
<path d="M236.534 232.842C236.718 233.499 237.23 233.959 237.65 233.854C238.07 233.749 238.267 233.158 238.07 232.54C237.873 231.923 237.374 231.424 236.954 231.516C236.534 231.608 236.337 232.199 236.534 232.842Z" fill="#263238"/>
<path d="M236.757 231.529L238.189 230.728C238.189 230.728 237.768 232.186 236.757 231.529Z" fill="#263238"/>
<path d="M234.616 234.431C235.637 235.815 236.834 237.06 238.175 238.135C237.905 238.448 237.568 238.696 237.188 238.86C236.808 239.024 236.396 239.099 235.982 239.08L234.616 234.431Z" fill="#D4827D"/>
<path d="M232.949 242.35C233.324 242.332 233.697 242.284 234.065 242.206C234.09 242.2 234.113 242.189 234.133 242.173C234.153 242.158 234.17 242.139 234.182 242.116C234.195 242.094 234.202 242.07 234.205 242.044C234.207 242.019 234.204 241.994 234.196 241.969C234.192 241.942 234.182 241.916 234.166 241.892C234.151 241.869 234.131 241.849 234.107 241.834C234.083 241.82 234.057 241.81 234.029 241.806C234.002 241.802 233.974 241.804 233.947 241.812C233.114 241.996 232.251 241.992 231.419 241.802C230.588 241.611 229.809 241.237 229.14 240.709C229.124 240.683 229.103 240.661 229.077 240.645C229.052 240.629 229.023 240.619 228.993 240.616C228.963 240.613 228.933 240.617 228.904 240.627C228.876 240.637 228.851 240.654 228.83 240.676C228.809 240.698 228.793 240.724 228.784 240.753C228.775 240.782 228.773 240.812 228.778 240.842C228.782 240.872 228.794 240.9 228.811 240.925C228.828 240.95 228.851 240.97 228.878 240.985C230.022 241.923 231.47 242.409 232.949 242.35Z" fill="#263238"/>
<path d="M216.021 242.797C216.448 243.451 217.008 244.009 217.664 244.434C218.32 244.859 219.057 245.142 219.829 245.266C221.76 245.489 222.246 243.256 221.326 241.221C220.499 239.395 218.503 237.084 216.756 237.806C215.01 238.529 214.826 241.063 216.021 242.797Z" fill="#FFC2BC"/>
<path d="M225.686 231.227C225.739 231.221 225.79 231.204 225.835 231.177C225.88 231.15 225.919 231.113 225.949 231.069C226.217 230.67 226.579 230.342 227.002 230.113C227.425 229.884 227.898 229.762 228.379 229.756C228.429 229.76 228.48 229.753 228.527 229.736C228.575 229.719 228.619 229.693 228.656 229.658C228.693 229.624 228.722 229.582 228.742 229.535C228.762 229.489 228.773 229.439 228.773 229.388C228.767 229.281 228.722 229.179 228.647 229.102C228.573 229.025 228.473 228.977 228.365 228.968C227.75 228.969 227.144 229.123 226.603 229.416C226.062 229.71 225.602 230.133 225.266 230.649C225.237 230.695 225.218 230.746 225.209 230.799C225.2 230.852 225.201 230.906 225.214 230.959C225.226 231.011 225.248 231.061 225.28 231.105C225.312 231.149 225.352 231.186 225.398 231.214C225.49 231.248 225.591 231.253 225.686 231.227Z" fill="#263238"/>
<path d="M237.794 228.732C237.894 228.728 237.988 228.686 238.057 228.614C238.122 228.53 238.151 228.423 238.139 228.318C238.127 228.212 238.074 228.116 237.991 228.049C237.513 227.614 236.941 227.295 236.318 227.12C235.696 226.944 235.041 226.916 234.406 227.038C234.357 227.051 234.31 227.074 234.27 227.107C234.23 227.139 234.197 227.179 234.173 227.225C234.15 227.271 234.136 227.321 234.133 227.373C234.131 227.424 234.138 227.475 234.157 227.524C234.19 227.624 234.26 227.708 234.352 227.759C234.445 227.81 234.553 227.825 234.656 227.799C235.16 227.717 235.677 227.749 236.168 227.892C236.659 228.035 237.111 228.286 237.492 228.627C237.533 228.664 237.58 228.693 237.632 228.711C237.684 228.729 237.74 228.736 237.794 228.732Z" fill="#263238"/>
<path d="M228.72 233.236L230.151 232.435C230.151 232.435 229.705 233.84 228.72 233.236Z" fill="#263238"/>
<path d="M293.91 356.775L317.076 300.869L286.766 288.314C288.287 287.66 289.628 286.649 290.675 285.367C291.722 284.084 292.444 282.568 292.781 280.947C293.218 279.066 293.085 277.098 292.4 275.292C291.715 273.487 290.508 271.926 288.933 270.809C287.867 270.087 286.662 269.598 285.395 269.371C284.128 269.145 282.828 269.187 281.579 269.495C279.532 269.428 277.515 269.994 275.802 271.115C274.089 272.236 272.763 273.858 272.005 275.76C271.185 277.734 271.001 279.914 271.48 281.998L244.256 270.717L241.629 270.966L218.463 326.859L248.773 339.426C247.251 340.077 245.909 341.086 244.86 342.366C243.81 343.646 243.085 345.161 242.746 346.781C242.31 348.663 242.445 350.632 243.132 352.438C243.82 354.243 245.029 355.803 246.607 356.919C247.672 357.641 248.877 358.13 250.144 358.356C251.411 358.583 252.711 358.54 253.961 358.232C256.007 358.299 258.024 357.734 259.737 356.613C261.451 355.492 262.777 353.87 263.534 351.968C264.354 349.994 264.538 347.813 264.06 345.73L291.284 357.011L293.91 356.775Z" fill="#0A97D4"/>
<path opacity="0.3" d="M293.91 356.775L317.076 300.869L286.766 288.314C288.287 287.66 289.628 286.649 290.675 285.367C291.722 284.084 292.444 282.568 292.781 280.947C293.218 279.066 293.085 277.098 292.4 275.292C291.715 273.487 290.508 271.926 288.933 270.809C287.867 270.087 286.662 269.598 285.395 269.371C284.128 269.145 282.828 269.187 281.579 269.495C279.532 269.428 277.515 269.994 275.802 271.115C274.089 272.236 272.763 273.858 272.005 275.76C271.185 277.734 271.001 279.914 271.48 281.998L244.256 270.717L241.629 270.966L218.463 326.859L248.773 339.426C247.251 340.077 245.909 341.086 244.86 342.366C243.81 343.646 243.085 345.161 242.746 346.781C242.31 348.663 242.445 350.632 243.132 352.438C243.82 354.243 245.029 355.803 246.607 356.919C247.672 357.641 248.877 358.13 250.144 358.356C251.411 358.583 252.711 358.54 253.961 358.232C256.007 358.299 258.024 357.734 259.737 356.613C261.451 355.492 262.777 353.87 263.534 351.968C264.354 349.994 264.538 347.813 264.06 345.73L291.284 357.011L293.91 356.775Z" fill="black"/>
<path d="M317.076 300.869L286.766 288.314C288.287 287.66 289.628 286.649 290.675 285.367C291.722 284.084 292.444 282.568 292.781 280.947C293.414 278.568 293.097 276.036 291.897 273.886C290.698 271.736 288.709 270.138 286.351 269.428C283.994 268.718 281.453 268.954 279.265 270.084C277.078 271.214 275.416 273.15 274.631 275.484C273.586 277.965 273.562 280.759 274.566 283.258L244.256 270.69L221.09 326.583L251.4 339.216C249.876 339.869 248.533 340.879 247.483 342.162C246.434 343.444 245.71 344.961 245.372 346.584C244.799 348.945 245.154 351.437 246.363 353.545C247.572 355.653 249.543 357.217 251.87 357.916C254.198 358.614 256.705 358.394 258.875 357.299C261.045 356.205 262.712 354.321 263.534 352.034C264.558 349.548 264.558 346.758 263.534 344.272L293.857 356.84L317.076 300.869Z" fill="#0A97D4"/>
<path d="M289.616 291.217L286.858 288.459C286.738 288.345 286.642 288.207 286.576 288.055C286.511 287.902 286.477 287.738 286.477 287.572C286.477 287.406 286.511 287.242 286.576 287.09C286.642 286.937 286.738 286.8 286.858 286.686L288.171 285.557C288.437 285.315 288.75 285.132 289.091 285.02C289.433 284.908 289.793 284.869 290.151 284.906C290.508 284.943 290.853 285.056 291.164 285.236C291.474 285.416 291.743 285.659 291.953 285.95L295.263 290.507L295.644 291.821L293.621 290.98L291.126 291.571C290.865 291.644 290.59 291.649 290.326 291.587C290.062 291.525 289.818 291.398 289.616 291.217Z" fill="#FFC2BC"/>
<path d="M208.758 264.781C210.833 272.555 212.409 280.96 216.034 288.131C216.034 288.249 216.428 288.616 217.347 288.997C221.169 290.521 226.474 290.626 230.861 290.744C235.851 290.81 240.973 290.521 245.95 290.192C246.583 290.146 247.211 290.337 247.711 290.729C248.21 291.121 248.545 291.685 248.65 292.311C248.756 292.937 248.623 293.58 248.279 294.114C247.935 294.647 247.404 295.033 246.79 295.196C241.694 296.573 236.5 297.565 231.255 298.164C225.476 298.729 220.25 299.149 214.274 297.402C211.786 296.659 209.627 295.089 208.154 292.95L207.458 291.913C204.215 286.476 202.442 280.606 200.669 274.696C199.986 272.069 199.356 269.64 198.791 266.974C198.647 266.317 198.634 265.638 198.752 264.976C198.871 264.314 199.118 263.681 199.481 263.115C200.214 261.971 201.371 261.165 202.698 260.874C203.355 260.73 204.034 260.717 204.696 260.835C205.358 260.954 205.991 261.201 206.557 261.564C207.701 262.297 208.507 263.454 208.798 264.781H208.758Z" fill="#EBC0BB"/>
<path d="M244.374 290.626L250.415 286.62L251.544 295.025C250.128 295.414 248.643 295.478 247.199 295.211C245.755 294.945 244.389 294.356 243.205 293.489L244.374 290.626Z" fill="#FFC2BC"/>
<path d="M257.52 287.211L257.191 293.62L251.544 294.999L250.415 286.594L257.52 287.211Z" fill="#FFC2BC"/>
<path d="M203.755 253.592C196.479 256.218 197.11 266.567 200.866 279.043C204.622 291.519 210.466 299.241 216.165 300.055L221.339 289.864C219.748 288.991 218.259 287.943 216.9 286.738C214.773 284.112 207.865 258.083 207.865 258.083L203.755 253.592Z" fill="#263238"/>
<path opacity="0.4" d="M203.755 253.592C196.479 256.218 197.11 266.567 200.866 279.043C204.622 291.519 210.466 299.241 216.165 300.055L221.339 289.864C219.748 288.991 218.259 287.943 216.9 286.738C214.773 284.112 207.865 258.083 207.865 258.083L203.755 253.592Z" fill="white"/>
<path d="M222.022 289.26L219.094 287.815L210.597 300.002L216.901 300.593L222.022 289.26Z" fill="#263238"/>
<path opacity="0.2" d="M222.022 289.26L219.094 287.815L210.597 300.002L216.901 300.593L222.022 289.26Z" fill="white"/>
</svg>
